<svg width="24" height="22" viewBox="0 0 24 22" fill="none" xmlns="http://www.w3.org/2000/svg">
<g clip-path="url(#clip0_159_2)">
<path fill-rule="evenodd" clip-rule="evenodd" d="M11.9642 0C5.34833 0 0 5.04167 0 11.2789C0 16.2646 3.42686 20.485 8.18082 21.9787C8.77518 22.091 8.9929 21.736 8.9929 21.4374C8.9929 21.1759 8.97331 20.2796 8.97331 19.3458C5.64514 20.0182 4.95208 18.0013 4.95208 18.0013C4.41722 16.6941 3.62473 16.3581 3.62473 16.3581C2.53543 15.6672 3.70408 15.6672 3.70408 15.6672C4.91241 15.7419 5.54645 16.825 5.54645 16.825C6.61592 18.5428 8.33927 18.0574 9.03257 17.7586C9.13151 17.0303 9.44865 16.5261 9.78539 16.2461C7.13094 15.9846 4.33812 15.0136 4.33812 10.6812C4.33812 9.44877 4.81322 8.44044 5.56604 7.65623C5.44727 7.37619 5.03118 6.21821 5.68506 4.66835C5.68506 4.66835 6.69527 4.36952 8.97306 5.8261C9.94827 5.57921 10.954 5.45362 11.9642 5.45256C12.9745 5.45256 14.0042 5.58342 14.9552 5.8261C17.2332 4.36952 18.2434 4.66835 18.2434 4.66835C18.8973 6.21821 18.481 7.37619 18.3622 7.65623C19.1349 8.44044 19.5904 9.44877 19.5904 10.6812C19.5904 15.0136 16.7976 15.9658 14.1233 16.2461C14.5592 16.6008 14.9353 17.273 14.9353 18.3375C14.9353 19.85 14.9158 21.0639 14.9158 21.4372C14.9158 21.736 15.1337 22.091 15.7278 21.9789C20.4818 20.4847 23.9087 16.2646 23.9087 11.2789C23.9282 5.04167 18.5603 0 11.9642 0Z" fill="white"/>
</g>
<defs>
<clipPath id="clip0_159_2">
<rect width="24" height="22" fill="white"/>
</clipPath>
</defs>
</svg>
