<svg width="23" height="23" viewBox="0 0 23 23" fill="none" xmlns="http://www.w3.org/2000/svg">
<path d="M5.75002 3.45002C5.75002 4.71502 4.94502 5.75002 3.45002 5.75002C2.07002 5.75002 1.15002 4.71502 1.15002 3.56502C1.15002 2.30002 2.07002 1.15002 3.45002 1.15002C4.83002 1.15002 5.75002 2.18502 5.75002 3.45002ZM1.15002 21.85H5.75002V6.90002H1.15002V21.85ZM16.79 7.13002C14.375 7.13002 12.995 8.51002 12.42 9.43002H12.305L12.075 7.47502H7.93502C7.93502 8.74002 8.05002 10.235 8.05002 11.96V21.85H12.65V13.685C12.65 13.225 12.65 12.88 12.765 12.535C13.11 11.73 13.685 10.695 14.95 10.695C16.56 10.695 17.25 12.075 17.25 13.915V21.85H21.85V13.34C21.85 9.08502 19.665 7.13002 16.79 7.13002Z" fill="white"/>
</svg>
