<svg width="1152" height="700" viewBox="0 0 1152 700" fill="none" xmlns="http://www.w3.org/2000/svg">
<path d="M305.313 9.92048C305.313 27.9257 302.082 46.8542 295.618 66.7061C287.539 91.1746 275.305 114.374 258.915 136.303C247.373 151.538 238.14 162.849 231.215 170.236C219.904 182.47 208.708 191.588 197.628 197.59C184.24 204.977 169.813 208.67 154.347 208.67C139.804 208.67 125.954 204.861 112.796 197.244C91.7902 185.009 69.63 162.849 46.3156 130.763C34.5429 114.604 24.1553 95.2143 15.1528 72.5924C5.22683 47.4313 0.263859 25.0402 0.263859 5.41918C0.263859 -15.356 5.11141 -32.4379 14.8065 -45.8263C24.7324 -59.2148 38.3517 -65.909 55.6644 -65.909C74.8238 -65.909 91.7902 -58.7531 106.564 -44.4413C117.182 -34.2846 126.877 -20.2036 135.649 -2.1984C140.497 8.18921 145.344 18.5768 150.192 28.9644C162.657 0.340797 175.699 -22.7428 189.318 -40.2863C203.861 -58.984 221.751 -68.3328 242.988 -68.3328C263.532 -68.3328 279.344 -60.4844 290.424 -44.7876C300.35 -30.7066 305.313 -12.4706 305.313 9.92048Z" fill="white" fill-opacity="0.33"/>
<path d="M628.59 138.727C628.59 158.809 623.742 174.853 614.047 186.856C604.352 198.859 591.194 204.861 574.574 204.861C566.495 204.861 557.723 202.899 548.259 198.975C538.794 194.82 531.408 189.857 526.099 184.086C518.712 175.776 512.248 166.196 506.708 155.347C503.477 148.884 500.13 145.652 496.667 145.652C466.889 145.652 448.769 147.037 442.305 149.807C439.304 150.961 435.149 156.501 429.84 166.427C422.915 179.123 413.682 189.164 402.14 196.551C390.829 203.707 379.287 207.285 367.514 207.285C351.587 207.285 338.544 200.706 328.388 187.549C318.462 174.16 313.499 156.847 313.499 135.611C313.499 118.99 317.538 99.1385 325.618 76.0549C332.774 55.2797 342.007 35.5432 353.318 16.8455C363.475 -0.467133 371.092 -12.586 376.171 -19.5111C386.558 -33.5921 397.985 -44.3259 410.45 -51.7127C426.147 -61.1769 443.806 -65.909 463.427 -65.909C487.434 -65.909 507.862 -59.6765 524.714 -47.2114C538.333 -37.0546 556.107 -17.0873 578.037 12.6905C590.271 29.5415 601.351 49.5088 611.277 72.5924C622.819 99.1385 628.59 121.183 628.59 138.727ZM485.587 41.4295C485.587 37.2745 483.625 34.2736 479.701 32.427C476.007 30.3494 471.506 29.3107 466.197 29.3107C459.502 29.3107 454.309 31.5036 450.615 35.8895C449.461 37.2745 448.191 39.5829 446.806 42.8146C446.806 47.4313 449.346 51.0092 454.424 53.5484C458.117 55.3951 462.272 56.3185 466.889 56.3185C471.506 56.3185 475.776 54.818 479.701 51.8172C483.625 48.8163 485.587 45.3537 485.587 41.4295Z" fill="white" fill-opacity="0.33"/>
<path d="M907.343 139.419C907.343 158.809 897.878 175.083 878.95 188.241C860.945 200.706 840.285 206.939 816.97 206.939H760.185C753.721 206.939 740.679 205.092 721.058 201.399C695.666 196.551 679.623 191.242 672.929 185.471C665.311 178.777 657.578 165.735 649.73 146.344C639.112 119.798 633.802 90.713 633.802 59.0885C633.802 25.1556 640.381 -4.04507 653.539 -28.5137C668.312 -55.7523 687.818 -69.3716 712.056 -69.3716C726.829 -69.3716 742.295 -62.1003 758.454 -47.5576C777.613 -30.2449 787.193 -9.58514 787.193 14.4218V57.011C787.193 59.0885 786.731 62.551 785.808 67.3986C784.884 72.2461 784.423 75.7087 784.423 77.7862C784.423 82.8646 786.731 85.4037 791.348 85.4037C792.502 85.4037 798.85 83.6725 810.392 80.2099C815.932 78.5941 822.626 77.7862 830.474 77.7862C850.326 77.7862 868.101 83.9033 883.797 96.1376C899.494 108.141 907.343 122.568 907.343 139.419Z" fill="white" fill-opacity="0.33"/>
<path d="M1164.65 159.502C1164.65 176.815 1154.61 189.626 1134.53 197.936C1116.75 205.323 1092.4 209.016 1061.47 209.016C1037.46 209.016 1016.11 207.4 997.412 204.169C970.635 199.552 952.514 192.05 943.05 181.662C933.817 171.275 926.545 156.155 921.236 136.303C916.158 116.451 913.618 91.6363 913.618 61.8585C913.618 39.9291 915.35 19.731 918.812 1.26413C923.429 -23.8969 930.7 -40.1709 940.626 -47.5576C952.63 -56.5602 966.941 -62.3311 983.562 -64.8703C994.642 -66.4861 1016.69 -67.2941 1049.7 -67.2941C1073.7 -67.2941 1090.21 -66.8324 1099.21 -65.909C1118.14 -64.0624 1132.57 -60.1382 1142.49 -54.1364C1154.96 -46.7497 1161.19 -35.785 1161.19 -21.2423C1161.19 -4.853 1155.19 7.26587 1143.18 15.1143C1133.26 21.5777 1119.64 24.8094 1102.33 24.8094C1091.48 24.8094 1083.28 24.4631 1077.74 23.7706C1072.43 22.8473 1066.89 21.8085 1061.12 20.6543C1059.74 20.6543 1057.89 21.3468 1055.58 22.7319C1053.27 23.886 1052.12 25.271 1052.12 26.8869C1052.12 31.0419 1053.85 33.812 1057.31 35.197C1061.01 36.582 1066.78 37.2745 1074.63 37.2745C1077.63 37.2745 1080.63 37.2745 1083.63 37.2745C1086.86 37.2745 1090.09 37.1591 1093.32 36.9282C1104.87 36.9282 1113.52 38.3133 1119.29 41.0833C1127.14 45.0075 1131.07 52.048 1131.07 62.2048C1131.07 70.7457 1128.99 78.2478 1124.83 84.7112C1120.68 90.9438 1114.79 94.0601 1107.17 94.0601H1069.43C1063.66 94.0601 1058.01 95.7914 1052.47 99.2539C1053.85 102.255 1055.47 104.332 1057.31 105.486C1059.16 106.41 1061.81 106.871 1065.28 106.871C1068.51 106.871 1071.16 106.756 1073.24 106.525C1083.17 105.371 1089.05 104.794 1090.9 104.794C1112.6 104.794 1130.26 109.526 1143.88 118.99C1157.73 128.224 1164.65 141.728 1164.65 159.502Z" fill="white" fill-opacity="0.33"/>
<path d="M339.164 358.362C339.164 392.526 333.97 421.034 323.582 443.887C310.194 473.203 289.765 487.861 262.295 487.861C250.523 487.861 239.327 485.784 228.709 481.629C218.321 477.474 210.357 472.511 204.817 466.74C194.43 456.121 186.697 446.426 181.618 437.654C174.924 426.344 170.423 420.688 168.114 420.688C166.729 420.688 163.267 428.19 157.727 443.195C154.264 452.659 149.301 461.084 142.838 468.471C136.605 475.627 128.526 481.167 118.6 485.091C110.752 488.092 103.365 489.592 96.4398 489.592C68.2779 489.592 46.9256 473.434 32.3829 441.117C21.3028 416.648 15.7628 389.064 15.7628 358.362C15.7628 322.583 21.7645 291.189 33.7679 264.181C49.2339 229.556 71.5096 212.243 100.595 212.243C122.524 212.243 143.184 224.131 162.574 247.908C173.424 262.912 180.81 272.838 184.734 277.685C190.044 266.374 196.738 255.179 204.817 244.099C221.206 221.708 238.404 210.512 256.409 210.512C285.033 210.512 306.847 228.633 321.851 264.874C333.393 292.805 339.164 323.968 339.164 358.362Z" fill="white" fill-opacity="0.33"/>
<path d="M642.338 286.688C642.338 306.54 635.99 321.66 623.294 332.047C605.751 341.973 592.362 350.052 583.129 356.285V388.486C583.129 415.033 577.243 438.001 565.47 457.391C552.081 479.32 534.307 490.285 512.147 490.285C490.218 490.285 472.789 479.551 459.863 458.083C449.706 441.002 442.781 418.264 439.087 389.871C437.702 380.869 436.895 374.29 436.664 370.135C436.433 365.749 436.202 362.056 435.971 359.055C417.273 351.899 401.577 342.666 388.881 331.355C375.031 318.89 368.105 303.885 368.105 286.342C368.105 267.413 382.417 250.793 411.041 236.481C439.665 221.939 472.097 214.667 508.338 214.667C538.116 214.667 566.163 220.092 592.478 230.941C625.718 244.56 642.338 263.143 642.338 286.688Z" fill="white" fill-opacity="0.33"/>
<path d="M829.326 352.822C829.326 373.828 827.595 392.988 824.132 410.3C819.516 433.846 812.129 452.543 801.972 466.393C789.738 483.245 774.041 491.67 754.882 491.67C729.028 491.67 708.83 478.512 694.287 452.197C681.591 429.114 675.243 400.836 675.243 367.365V323.045C675.243 296.268 681.707 272.261 694.633 251.024C708.945 227.479 726.835 215.706 748.303 215.706C777.157 215.706 798.74 231.98 813.052 264.528C823.901 289.227 829.326 318.659 829.326 352.822Z" fill="white" fill-opacity="0.33"/>
<path d="M1146.53 434.884C1146.53 454.505 1133.37 469.164 1107.05 478.859C1083.97 487.399 1053.5 491.67 1015.64 491.67C989.789 491.67 968.437 490.516 951.586 488.207C925.963 484.745 905.996 478.628 891.684 469.856C874.141 459.007 865.369 444.233 865.369 425.536C865.369 407.992 875.526 390.564 895.839 373.251C911.074 361.71 926.309 350.052 941.545 338.28C917.307 332.74 897.917 325.468 883.374 316.466C867.677 306.771 859.829 294.652 859.829 280.109C859.829 263.258 871.832 248.831 895.839 236.827C921.924 223.901 956.433 217.437 999.369 217.437C1019.68 217.437 1038.96 218.938 1057.19 221.939C1081.89 226.094 1101.17 232.442 1115.02 240.982C1132.33 251.832 1140.99 266.028 1140.99 283.572C1140.99 297.653 1133.72 312.657 1119.17 328.585C1103.24 344.512 1087.43 360.324 1071.74 376.021C1071.74 379.022 1074.51 381.1 1080.05 382.254C1091.82 384.793 1103.94 389.064 1116.4 395.065C1124.94 399.22 1131.87 404.414 1137.18 410.647C1143.41 418.033 1146.53 426.113 1146.53 434.884Z" fill="white" fill-opacity="0.33"/>
<path d="M285.413 704.727C285.413 724.809 280.566 740.853 270.87 752.856C261.175 764.859 248.018 770.861 231.398 770.861C223.318 770.861 214.547 768.899 205.082 764.975C195.618 760.82 188.231 755.857 182.922 750.086C175.535 741.776 169.072 732.196 163.532 721.347C160.3 714.884 156.953 711.652 153.49 711.652C123.713 711.652 105.592 713.037 99.1287 715.807C96.1278 716.961 91.9728 722.501 86.6636 732.427C79.7385 745.123 70.5051 755.164 58.9633 762.551C47.6523 769.707 36.1106 773.285 24.3379 773.285C8.41028 773.285 -4.63194 766.706 -14.7887 753.549C-24.7146 740.16 -29.6776 722.847 -29.6776 701.61C-29.6776 684.99 -25.638 665.138 -17.5587 642.055C-10.4028 621.28 -1.1694 601.543 10.1415 582.846C20.2983 565.533 27.9159 553.414 32.9943 546.489C43.3819 532.408 54.8083 521.674 67.2734 514.287C82.9702 504.823 100.629 500.091 120.25 500.091C144.257 500.091 164.686 506.323 181.537 518.789C195.156 528.945 212.931 548.913 234.86 578.69C247.094 595.542 258.174 615.509 268.1 638.592C279.642 665.138 285.413 687.183 285.413 704.727ZM142.41 607.43C142.41 603.274 140.448 600.274 136.524 598.427C132.831 596.349 128.329 595.311 123.02 595.311C116.326 595.311 111.132 597.504 107.439 601.889C106.285 603.274 105.015 605.583 103.63 608.815C103.63 613.431 106.169 617.009 111.248 619.548C114.941 621.395 119.096 622.318 123.713 622.318C128.329 622.318 132.6 620.818 136.524 617.817C140.448 614.816 142.41 611.354 142.41 607.43Z" fill="white" fill-opacity="0.33"/>
<path d="M592.905 691.569C592.905 718.808 575.246 739.814 539.928 754.587C509.689 767.283 472.524 773.631 428.435 773.631C403.504 773.631 383.653 772.131 368.879 769.13C342.795 763.821 325.02 753.895 315.556 739.352C308.631 728.503 303.206 715.114 299.282 699.187C294.435 678.873 292.011 653.943 292.011 624.396C292.011 603.39 292.934 586.885 294.781 574.882C299.167 546.258 308.285 526.637 322.135 516.019C327.213 512.094 340.14 508.055 360.915 503.9C385.846 498.821 409.968 496.282 433.282 496.282C451.057 496.282 468.6 497.552 485.913 500.091C514.536 504.246 537.851 511.286 555.856 521.212C579.401 534.139 591.174 550.99 591.174 571.765C591.174 585.385 585.634 597.734 574.554 608.815C563.474 619.895 557.934 627.051 557.934 630.282C566.936 637.669 574.785 646.672 581.479 657.29C589.096 669.063 592.905 680.489 592.905 691.569ZM460.636 580.768C460.636 578.229 458.213 575.805 453.365 573.497C448.517 570.958 444.247 569.688 440.554 569.688C435.937 569.688 430.743 571.535 424.972 575.228C423.125 576.382 420.702 578.229 417.701 580.768C417.701 583.769 419.778 586.424 423.933 588.732C429.704 591.964 434.783 593.579 439.169 593.579C446.094 593.579 451.403 592.079 455.096 589.078C458.79 585.846 460.636 583.076 460.636 580.768ZM462.021 679.45C462.021 676.219 458.559 673.564 451.634 671.486C449.325 670.794 445.863 670.101 441.246 669.409C435.937 669.409 431.205 670.563 427.05 672.871C423.126 674.949 421.163 677.95 421.163 681.874C421.163 685.798 423.126 688.684 427.05 690.53C430.974 692.146 435.475 692.954 440.554 692.954C446.555 692.954 451.634 691.915 455.789 689.838C459.944 687.53 462.021 684.067 462.021 679.45Z" fill="white" fill-opacity="0.33"/>
<path d="M914.959 704.727C914.959 724.809 910.111 740.853 900.416 752.856C890.721 764.859 877.563 770.861 860.943 770.861C852.864 770.861 844.092 768.899 834.628 764.975C825.164 760.82 817.777 755.857 812.468 750.086C805.081 741.776 798.618 732.196 793.078 721.347C789.846 714.884 786.499 711.652 783.036 711.652C753.258 711.652 735.138 713.037 728.674 715.807C725.674 716.961 721.518 722.501 716.209 732.427C709.284 745.123 700.051 755.164 688.509 762.551C677.198 769.707 665.656 773.285 653.884 773.285C637.956 773.285 624.914 766.706 614.757 753.549C604.831 740.16 599.868 722.847 599.868 701.61C599.868 684.99 603.908 665.138 611.987 642.055C619.143 621.28 628.376 601.543 639.687 582.846C649.844 565.533 657.462 553.414 662.54 546.489C672.928 532.408 684.354 521.674 696.819 514.287C712.516 504.823 730.175 500.091 749.796 500.091C773.803 500.091 794.232 506.323 811.083 518.789C824.702 528.945 842.476 548.913 864.406 578.69C876.64 595.542 887.72 615.509 897.646 638.592C909.188 665.138 914.959 687.183 914.959 704.727ZM771.956 607.43C771.956 603.274 769.994 600.274 766.07 598.427C762.376 596.349 757.875 595.311 752.566 595.311C745.872 595.311 740.678 597.504 736.985 601.889C735.83 603.274 734.561 605.583 733.176 608.815C733.176 613.431 735.715 617.009 740.793 619.548C744.487 621.395 748.642 622.318 753.258 622.318C757.875 622.318 762.146 620.818 766.07 617.817C769.994 614.816 771.956 611.354 771.956 607.43Z" fill="white" fill-opacity="0.33"/>
<path d="M1193.71 705.419C1193.71 724.809 1184.25 741.083 1165.32 754.241C1147.31 766.706 1126.65 772.939 1103.34 772.939H1046.55C1040.09 772.939 1027.05 771.092 1007.43 767.399C982.035 762.551 965.992 757.242 959.298 751.471C951.681 744.777 943.948 731.735 936.099 712.344C925.481 685.798 920.172 656.713 920.172 625.088C920.172 591.156 926.75 561.955 939.908 537.486C954.681 510.248 974.187 496.628 998.425 496.628C1013.2 496.628 1028.66 503.9 1044.82 518.442C1063.98 535.755 1073.56 556.415 1073.56 580.422V623.011C1073.56 625.088 1073.1 628.551 1072.18 633.399C1071.25 638.246 1070.79 641.709 1070.79 643.786C1070.79 648.865 1073.1 651.404 1077.72 651.404C1078.87 651.404 1085.22 649.672 1096.76 646.21C1102.3 644.594 1109 643.786 1116.84 643.786C1136.7 643.786 1154.47 649.903 1170.17 662.138C1185.86 674.141 1193.71 688.568 1193.71 705.419Z" fill="white" fill-opacity="0.33"/>
</svg>
