<svg width="375" height="812" viewBox="0 0 375 812" fill="none" xmlns="http://www.w3.org/2000/svg">
<path d="M195.356 33.8248C195.356 44.64 193.415 56.0099 189.532 67.9343C184.679 82.6319 177.331 96.5668 167.486 109.739C160.553 118.891 155.007 125.685 150.847 130.122C144.053 137.47 137.328 142.947 130.673 146.552C122.631 150.989 113.965 153.208 104.675 153.208C95.9394 153.208 87.62 150.92 79.7166 146.344C67.0988 138.996 53.7878 125.685 39.7835 106.411C32.7121 96.7055 26.4725 85.0584 21.0649 71.47C15.1027 56.3565 12.1216 42.9068 12.1216 31.121C12.1216 18.6419 15.0334 8.38138 20.8569 0.33931C26.8192 -7.70276 34.9999 -11.7238 45.3991 -11.7238C56.9076 -11.7238 67.0989 -7.42545 75.9729 1.17125C82.3511 7.27213 88.1746 15.7302 93.4436 26.5454C96.3554 32.7849 99.2671 39.0244 102.179 45.264C109.666 28.0706 117.5 14.2049 125.681 3.66706C134.417 -7.56411 145.162 -13.1797 157.919 -13.1797C170.259 -13.1797 179.757 -8.46537 186.413 0.963267C192.375 9.42131 195.356 20.3752 195.356 33.8248Z" fill="white" fill-opacity="0.33"/>
<path d="M389.539 111.195C389.539 123.258 386.627 132.895 380.803 140.105C374.98 147.315 367.076 150.92 357.093 150.92C352.24 150.92 346.971 149.742 341.286 147.384C335.602 144.889 331.164 141.907 327.975 138.441C323.538 133.449 319.656 127.695 316.328 121.178C314.387 117.296 312.377 115.355 310.297 115.355C292.41 115.355 281.526 116.187 277.643 117.851C275.841 118.544 273.345 121.872 270.156 127.834C265.996 135.46 260.45 141.492 253.517 145.929C246.723 150.227 239.79 152.376 232.718 152.376C223.151 152.376 215.317 148.424 209.216 140.521C203.254 132.479 200.273 122.08 200.273 109.323C200.273 99.34 202.699 87.4155 207.552 73.5499C211.851 61.0708 217.397 49.2157 224.191 37.9845C230.292 27.5853 234.868 20.3058 237.918 16.1461C244.158 7.68809 251.021 1.24057 258.509 -3.19643C267.937 -8.88134 278.544 -11.7238 290.33 -11.7238C304.75 -11.7238 317.022 -7.98008 327.143 -0.49263C335.324 5.60825 346.001 17.602 359.173 35.4887C366.522 45.6106 373.177 57.6044 379.14 71.47C386.072 87.4155 389.539 100.657 389.539 111.195ZM303.641 52.7514C303.641 50.2556 302.463 48.4531 300.105 47.3438C297.887 46.0959 295.183 45.472 291.994 45.472C287.973 45.472 284.853 46.7892 282.635 49.4237C281.941 50.2556 281.179 51.6422 280.347 53.5834C280.347 56.3565 281.872 58.5057 284.923 60.0309C287.141 61.1401 289.637 61.6948 292.41 61.6948C295.183 61.6948 297.748 60.7935 300.105 58.991C302.463 57.1884 303.641 55.1086 303.641 52.7514Z" fill="white" fill-opacity="0.33"/>
<path d="M106.277 281.611C106.277 293.258 100.592 303.033 89.2222 310.937C78.407 318.424 65.9972 322.168 51.9929 322.168H17.8834C14.001 322.168 6.16696 321.059 -5.61883 318.84C-20.871 315.929 -30.5077 312.739 -34.5287 309.273C-39.1043 305.252 -43.7493 297.418 -48.4637 285.771C-54.8418 269.825 -58.0309 252.355 -58.0309 233.359C-58.0309 212.976 -54.0792 195.436 -46.1758 180.739C-37.3018 164.377 -25.5853 156.196 -11.0264 156.196C-2.15242 156.196 7.13756 160.564 16.8435 169.299C28.352 179.699 34.1062 192.108 34.1062 206.529V232.111C34.1062 233.359 33.8289 235.438 33.2743 238.35C32.7197 241.262 32.4424 243.342 32.4424 244.59C32.4424 247.64 33.8289 249.165 36.602 249.165C37.2953 249.165 41.1084 248.126 48.0412 246.046C51.369 245.075 55.39 244.59 60.1043 244.59C72.0287 244.59 82.7053 248.264 92.1339 255.613C101.563 262.823 106.277 271.489 106.277 281.611Z" fill="white" fill-opacity="0.33"/>
<path d="M260.835 293.674C260.835 304.073 254.804 311.769 242.741 316.76C232.064 321.197 217.436 323.416 198.856 323.416C184.436 323.416 171.61 322.445 160.379 320.504C144.295 317.731 133.41 313.225 127.725 306.985C122.179 300.746 117.811 291.664 114.622 279.739C111.572 267.815 110.047 252.909 110.047 235.023C110.047 221.85 111.087 209.718 113.166 198.625C115.939 183.512 120.307 173.736 126.269 169.299C133.48 163.892 142.076 160.425 152.059 158.9C158.715 157.93 171.957 157.444 191.785 157.444C206.205 157.444 216.119 157.722 221.526 158.276C232.896 159.385 241.562 161.743 247.524 165.348C255.012 169.785 258.756 176.371 258.756 185.106C258.756 194.951 255.15 202.23 247.94 206.945C241.978 210.827 233.797 212.768 223.398 212.768C216.881 212.768 211.959 212.56 208.631 212.144C205.442 211.59 202.114 210.966 198.648 210.272C197.816 210.272 196.707 210.688 195.32 211.52C193.934 212.214 193.24 213.045 193.24 214.016C193.24 216.512 194.28 218.176 196.36 219.008C198.579 219.84 202.045 220.256 206.759 220.256C208.562 220.256 210.364 220.256 212.167 220.256C214.108 220.256 216.049 220.186 217.991 220.048C224.923 220.048 230.123 220.88 233.589 222.543C238.304 224.901 240.661 229.13 240.661 235.23C240.661 240.361 239.413 244.867 236.917 248.749C234.421 252.493 230.886 254.365 226.31 254.365H203.64C200.173 254.365 196.776 255.405 193.448 257.485C194.28 259.287 195.251 260.535 196.36 261.229C197.469 261.783 199.064 262.061 201.144 262.061C203.085 262.061 204.68 261.991 205.927 261.853C211.89 261.159 215.425 260.813 216.535 260.813C229.568 260.813 240.176 263.655 248.356 269.34C256.676 274.886 260.835 282.998 260.835 293.674Z" fill="white" fill-opacity="0.33"/>
<path d="M458.125 243.134C458.125 263.655 455.005 280.779 448.766 294.506C440.724 312.115 428.453 320.92 411.952 320.92C404.881 320.92 398.156 319.672 391.778 317.176C385.538 314.681 380.755 311.7 377.427 308.233C371.187 301.855 366.542 296.031 363.492 290.762C359.471 283.968 356.767 280.571 355.381 280.571C354.549 280.571 352.469 285.077 349.141 294.09C347.061 299.775 344.08 304.836 340.198 309.273C336.454 313.571 331.601 316.899 325.639 319.256C320.925 321.059 316.488 321.96 312.328 321.96C295.412 321.96 282.586 312.254 273.851 292.842C267.195 278.145 263.867 261.575 263.867 243.134C263.867 221.642 267.472 202.785 274.683 186.562C283.973 165.764 297.353 155.364 314.824 155.364C327.996 155.364 340.406 162.505 352.053 176.787C358.57 185.799 363.007 191.762 365.364 194.673C368.553 187.879 372.574 181.155 377.427 174.499C387.272 161.049 397.602 154.324 408.417 154.324C425.61 154.324 438.713 165.209 447.726 186.978C454.659 203.755 458.125 222.474 458.125 243.134Z" fill="white" fill-opacity="0.33"/>
<path d="M130.923 370.081C130.923 382.006 127.11 391.088 119.484 397.327C108.946 403.289 100.904 408.142 95.3577 411.886V431.229C95.3577 447.174 91.8219 460.97 84.7505 472.618C76.7084 485.79 66.0319 492.376 52.7208 492.376C39.5485 492.376 29.0799 485.929 21.3152 473.033C15.2143 462.773 11.0546 449.115 8.8361 432.061C8.00416 426.653 7.51886 422.701 7.3802 420.205C7.24155 417.571 7.1029 415.352 6.96424 413.55C-4.26693 409.252 -13.6956 403.705 -21.3217 396.911C-29.6411 389.424 -33.8007 380.411 -33.8007 369.873C-33.8007 358.503 -25.204 348.52 -8.01065 339.923C9.18274 331.188 28.664 326.82 50.433 326.82C68.3197 326.82 85.1664 330.079 100.973 336.596C120.94 344.776 130.923 355.938 130.923 370.081Z" fill="white" fill-opacity="0.33"/>
<path d="M243.241 409.806C243.241 422.424 242.201 433.932 240.121 444.332C237.348 458.475 232.911 469.706 226.81 478.025C219.462 488.147 210.033 493.208 198.525 493.208C182.995 493.208 170.863 485.305 162.127 469.498C154.501 455.632 150.688 438.647 150.688 418.542V391.919C150.688 375.835 154.57 361.415 162.335 348.659C170.932 334.516 181.678 327.444 194.573 327.444C211.905 327.444 224.869 337.22 233.466 356.77C239.983 371.606 243.241 389.285 243.241 409.806Z" fill="white" fill-opacity="0.33"/>
<path d="M433.775 459.099C433.775 470.884 425.871 479.689 410.064 485.513C396.199 490.643 377.896 493.208 355.156 493.208C339.627 493.208 326.801 492.515 316.679 491.128C301.288 489.048 289.295 485.374 280.698 480.105C270.16 473.588 264.891 464.714 264.891 453.483C264.891 442.945 270.992 432.477 283.194 422.077C292.345 415.144 301.496 408.142 310.648 401.071C296.089 397.743 284.442 393.375 275.706 387.968C266.278 382.144 261.563 374.865 261.563 366.129C261.563 356.007 268.773 347.341 283.194 340.131C298.862 332.367 319.591 328.484 345.381 328.484C357.583 328.484 369.161 329.385 380.115 331.188C394.951 333.684 406.529 337.497 414.848 342.627C425.247 349.144 430.447 357.671 430.447 368.209C430.447 376.667 426.079 385.68 417.344 395.247C407.776 404.815 398.279 414.313 388.85 423.741C388.85 425.544 390.514 426.792 393.842 427.485C400.913 429.01 408.192 431.575 415.68 435.18C420.81 437.676 424.97 440.796 428.159 444.54C431.903 448.977 433.775 453.83 433.775 459.099Z" fill="white" fill-opacity="0.33"/>
<path d="M203.003 621.195C203.003 633.258 200.091 642.895 194.267 650.105C188.444 657.315 180.54 660.92 170.557 660.92C165.704 660.92 160.435 659.742 154.75 657.384C149.065 654.889 144.628 651.908 141.439 648.441C137.002 643.449 133.12 637.695 129.792 631.178C127.851 627.296 125.84 625.355 123.761 625.355C105.874 625.355 94.9894 626.187 91.107 627.851C89.3045 628.544 86.8086 631.872 83.6196 637.834C79.4599 645.46 73.9136 651.492 66.9808 655.929C60.1866 660.227 53.2538 662.376 46.1823 662.376C36.615 662.376 28.7809 658.424 22.6801 650.521C16.7178 642.479 13.7367 632.08 13.7367 619.323C13.7367 609.34 16.1632 597.416 21.0162 583.55C25.3145 571.071 30.8608 559.216 37.655 547.984C43.7558 537.585 48.3315 530.306 51.3819 526.146C57.6215 517.688 64.485 511.241 71.9724 506.804C81.401 501.119 92.0083 498.276 103.794 498.276C118.214 498.276 130.485 502.02 140.607 509.507C148.788 515.608 159.465 527.602 172.637 545.489C179.986 555.611 186.641 567.604 192.603 581.47C199.536 597.416 203.003 610.657 203.003 621.195ZM117.105 562.751C117.105 560.256 115.926 558.453 113.569 557.344C111.351 556.096 108.647 555.472 105.458 555.472C101.437 555.472 98.3171 556.789 96.0986 559.424C95.4053 560.256 94.6427 561.642 93.8108 563.583C93.8108 566.356 95.336 568.506 98.3864 570.031C100.605 571.14 103.101 571.695 105.874 571.695C108.647 571.695 111.212 570.794 113.569 568.991C115.926 567.188 117.105 565.109 117.105 562.751Z" fill="white" fill-opacity="0.33"/>
<path d="M387.704 613.292C387.704 629.653 377.097 642.271 355.883 651.145C337.719 658.771 315.395 662.584 288.912 662.584C273.937 662.584 262.012 661.683 253.138 659.88C237.47 656.691 226.794 650.729 221.109 641.994C216.949 635.477 213.691 627.435 211.333 617.867C208.422 605.666 206.966 590.691 206.966 572.943C206.966 560.325 207.52 550.411 208.63 543.201C211.264 526.007 216.741 514.222 225.06 507.844C228.111 505.486 235.876 503.06 248.355 500.564C263.33 497.514 277.819 495.988 291.823 495.988C302.5 495.988 313.038 496.751 323.437 498.276C340.63 500.772 354.635 505.001 365.45 510.963C379.593 518.728 386.664 528.85 386.664 541.329C386.664 549.51 383.337 556.928 376.681 563.583C370.026 570.239 366.698 574.537 366.698 576.478C372.106 580.915 376.82 586.323 380.841 592.701C385.417 599.773 387.704 606.636 387.704 613.292ZM308.254 546.737C308.254 545.211 306.798 543.756 303.887 542.369C300.975 540.844 298.41 540.081 296.191 540.081C293.418 540.081 290.298 541.19 286.832 543.409C285.723 544.102 284.267 545.211 282.464 546.737C282.464 548.539 283.712 550.134 286.208 551.52C289.674 553.461 292.725 554.432 295.359 554.432C299.519 554.432 302.708 553.531 304.926 551.728C307.145 549.787 308.254 548.123 308.254 546.737ZM309.086 606.012C309.086 604.071 307.006 602.476 302.847 601.229C301.46 600.813 299.38 600.397 296.607 599.981C293.418 599.981 290.576 600.674 288.08 602.061C285.723 603.308 284.544 605.111 284.544 607.468C284.544 609.825 285.723 611.558 288.08 612.668C290.437 613.638 293.141 614.124 296.191 614.124C299.796 614.124 302.847 613.5 305.342 612.252C307.838 610.865 309.086 608.785 309.086 606.012Z" fill="white" fill-opacity="0.33"/>
<path d="M211.736 791.195C211.736 803.258 208.825 812.895 203.001 820.105C197.177 827.315 189.274 830.92 179.291 830.92C174.438 830.92 169.169 829.742 163.484 827.384C157.799 824.889 153.362 821.908 150.173 818.441C145.736 813.449 141.854 807.695 138.526 801.178C136.585 797.296 134.574 795.355 132.494 795.355C114.608 795.355 103.723 796.187 99.8407 797.851C98.0382 798.544 95.5424 801.872 92.3533 807.834C88.1936 815.46 82.6473 821.492 75.7145 825.929C68.9203 830.227 61.9875 832.376 54.916 832.376C45.3488 832.376 37.5147 828.424 31.4138 820.521C25.4516 812.479 22.4705 802.08 22.4705 789.323C22.4705 779.34 24.8969 767.416 29.7499 753.55C34.0483 741.071 39.5945 729.216 46.3887 717.984C52.4896 707.585 57.0652 700.306 60.1157 696.146C66.3552 687.688 73.2187 681.241 80.7061 676.804C90.1348 671.119 100.742 668.276 112.528 668.276C126.948 668.276 139.219 672.02 149.341 679.507C157.522 685.608 168.198 697.602 181.371 715.489C188.719 725.611 195.375 737.604 201.337 751.47C208.27 767.416 211.736 780.657 211.736 791.195ZM125.839 732.751C125.839 730.256 124.66 728.453 122.303 727.344C120.085 726.096 117.381 725.472 114.192 725.472C110.171 725.472 107.051 726.789 104.832 729.424C104.139 730.256 103.376 731.642 102.545 733.583C102.545 736.356 104.07 738.506 107.12 740.031C109.339 741.14 111.835 741.695 114.608 741.695C117.381 741.695 119.946 740.794 122.303 738.991C124.66 737.188 125.839 735.109 125.839 732.751Z" fill="white" fill-opacity="0.33"/>
<path d="M379.175 791.611C379.175 803.258 373.49 813.033 362.121 820.937C351.305 828.424 338.896 832.168 324.891 832.168H290.782C286.9 832.168 279.065 831.059 267.28 828.84C252.027 825.929 242.391 822.739 238.37 819.273C233.794 815.252 229.149 807.418 224.435 795.771C218.057 779.825 214.868 762.355 214.868 743.359C214.868 722.976 218.819 705.436 226.723 690.739C235.597 674.377 247.313 666.196 261.872 666.196C270.746 666.196 280.036 670.564 289.742 679.299C301.25 689.699 307.005 702.108 307.005 716.529V742.111C307.005 743.359 306.727 745.438 306.173 748.35C305.618 751.262 305.341 753.342 305.341 754.59C305.341 757.64 306.727 759.165 309.501 759.165C310.194 759.165 314.007 758.126 320.94 756.046C324.267 755.075 328.288 754.59 333.003 754.59C344.927 754.59 355.604 758.264 365.032 765.613C374.461 772.823 379.175 781.489 379.175 791.611Z" fill="white" fill-opacity="0.33"/>
</svg>
